<svg height="512pt" viewBox="0 0 512 512.00636" width="512pt" xmlns="http://www.w3.org/2000/svg"><path d="m270.730469 504.523438 234.328125-321.324219c8.929687-12.230469 9.257812-28.738281.820312-41.3125l-84.355468-125.777344c-6.785157-10.082031-18.144532-16.125-30.296876-16.109375h-270.46875c-12.148437-.0117188-23.507812 6.027344-30.289062 16.109375l-84.355469 125.804687c-8.4375 12.574219-8.109375 29.082032.820313 41.3125l234.328125 321.324219c3.445312 4.691407 8.921875 7.460938 14.742187 7.457031 5.820313-.007812 11.289063-2.785156 14.726563-7.484374zm0 0" fill="#cc4b4c"/><path d="m36.796875 157.414062 79.378906-118.167968 7.40625-3.9375h264.828125l7.398438 3.914062 79.367187 117.351563c2.082031 3.074219 2.003907 7.125-.195312 10.117187l-211.808594 288.660156c-1.6875 2.285157-4.359375 3.632813-7.203125 3.632813-2.839844 0-5.511719-1.347656-7.203125-3.632813l-211.746094-287.832031c-2.203125-2.980469-2.289062-7.027343-.222656-10.105469zm0 0" fill="#285680"/><path d="m263.984375 52.339844 36.378906 77.503906c1.25 2.667969 3.746094 4.535156 6.65625 4.980469l82.097657 12.535156c3.269531.5 5.988281 2.785156 7.039062 5.921875 1.050781 3.140625.257812 6.601562-2.050781 8.96875l-59.921875 61.421875c-1.957032 2.007813-2.84375 4.820313-2.394532 7.585937l14.070313 86.253907c.550781 3.351562-.871094 6.726562-3.660156 8.671875-2.789063 1.945312-6.445313 2.113281-9.402344.4375l-72.527344-40.078125c-2.660156-1.46875-5.886719-1.46875-8.546875 0l-72.527344 40.078125c-2.957031 1.636718-6.589843 1.4375-9.355468-.507813-2.765625-1.945312-4.171875-5.300781-3.628906-8.636719l14.035156-86.195312c.449218-2.761719-.4375-5.578125-2.390625-7.582031l-59.929688-61.449219c-2.3125-2.367188-3.105469-5.828125-2.054687-8.96875 1.050781-3.136719 3.769531-5.421875 7.039062-5.921875l82.097656-12.535156c2.910157-.445313 5.40625-2.3125 6.65625-4.980469l36.378907-77.503906c1.464843-3.078125 4.566406-5.035156 7.972656-5.035156 3.402344 0 6.507813 1.957031 7.96875 5.035156zm0 0" fill="#f29c1f"/><path d="m251.722656 246.191406-26.003906 14.382813c-2.960938 1.628906-6.589844 1.429687-9.351562-.515625-2.757813-1.945313-4.167969-5.296875-3.625-8.632813l5.226562-32.078125c.449219-2.765625-.4375-5.578125-2.394531-7.582031l-24.382813-24.992187c-2.308594-2.367188-3.101562-5.832032-2.050781-8.96875 1.050781-3.136719 3.769531-5.425782 7.039063-5.921876l32.761718-5.007812c2.910156-.445312 5.40625-2.3125 6.652344-4.976562l12.421875-26.484376c1.457031-3.09375 4.570313-5.070312 7.988281-5.070312 3.421875 0 6.535156 1.976562 7.988282 5.070312l12.421874 26.484376c1.25 2.664062 3.746094 4.53125 6.65625 4.976562l32.757813 5.007812c3.273437.496094 5.992187 2.785157 7.042969 5.921876 1.050781 3.136718.257812 6.601562-2.054688 8.96875l-24.390625 24.992187c-1.953125 2.003906-2.84375 4.816406-2.390625 7.582031l5.226563 32.078125c.542969 3.339844-.867188 6.691407-3.632813 8.640625-2.761718 1.945313-6.394531 2.144532-9.355468.507813l-26.011719-14.382813c-2.65625-1.464844-5.882813-1.464844-8.539063 0zm0 0" fill="#f3d55b"/></svg>